<svg width="28" height="28" viewBox="0 0 28 28" fill="none" xmlns="http://www.w3.org/2000/svg">
<path d="M7.32407 14C7.32407 17.6814 10.3187 20.676 14.0001 20.676C17.6814 20.676 20.6761 17.6814 20.6761 14C20.6761 10.3187 17.6814 7.32402 14.0001 7.32402C10.3187 7.32402 7.32407 10.3187 7.32407 14ZM14.0001 9.99069C16.2107 9.99069 18.0094 11.7894 18.0094 14C18.0094 16.2107 16.2107 18.0094 14.0001 18.0094C11.7894 18.0094 9.99074 16.2107 9.99074 14C9.99074 11.7894 11.7894 9.99069 14.0001 9.99069ZM12.6641 23.3334H15.3307V27.3334H12.6641V23.3334ZM12.6641 0.666687H15.3307V4.66669H12.6641V0.666687ZM0.664062 12.6667H4.66407V15.3334H0.664062V12.6667ZM23.3307 12.6667H27.3307V15.3334H23.3307V12.6667ZM3.6254 22.484L6.45207 19.6547L8.33873 21.54L5.51207 24.3694L3.6254 22.484ZM19.6534 6.45869L22.4827 3.62936L24.3681 5.51469L21.5387 8.34403L19.6534 6.45869ZM6.45607 8.34536L3.62673 5.51602L5.5134 3.63069L8.34007 6.46002L6.45607 8.34536ZM24.3681 22.4854L22.4827 24.3707L19.6534 21.5414L21.5387 19.656L24.3681 22.4854Z" fill="#3E85F3"/>
</svg>
